<svg width="155" height="29" viewBox="0 0 155 29" fill="none" xmlns="http://www.w3.org/2000/svg">
<path d="M10.9522 21.3299C12.2059 21.3076 12.7301 19.6542 11.7574 18.8358C11.6277 18.73 11.498 18.6187 11.3683 18.5073C6.47783 14.4265 5.02959 15.3952 0.122869 17.1433C-0.0554586 17.2046 -0.0338332 17.4663 0.149899 17.5052C1.61435 17.8226 3.04097 18.7968 4.87829 20.8066L10.4605 21.3076C10.628 21.3243 10.7955 21.3299 10.9577 21.3243L10.9522 21.3299Z" fill="#EB1F48"/>
<path d="M33.9376 0.990087L15.197 20.314C13.8244 21.728 11.9222 22.4407 9.98763 22.2681L5.50781 21.8617L10.166 26.4992C12.6031 28.9209 16.5696 28.4811 18.4501 25.5806L34.2186 1.22392C34.3375 1.03463 34.0943 0.828637 33.9376 0.990087Z" fill="#EB1F48"/>
<path d="M40.7419 7.93807L44.3679 15.3369C44.4274 15.4705 44.5949 15.4705 44.6544 15.3369L48.2101 7.93807C48.2803 7.79332 48.3506 7.72095 48.5668 7.72095H52.4197C52.5332 7.72095 52.6034 7.82116 52.5332 7.97147L46.5025 19.6627V25.5973C46.5025 25.7421 46.4322 25.8145 46.2917 25.8145H42.6657C42.5252 25.8145 42.455 25.7421 42.455 25.5973V19.5903L36.4837 7.94363C36.4134 7.81002 36.4675 7.72651 36.6134 7.72651H40.4664C40.6069 7.72651 40.6771 7.79889 40.7528 7.94363L40.7419 7.93807Z" fill="#002EDA"/>
<path d="M66.1219 22.296V25.5918C66.1219 25.7365 66.0516 25.8089 65.9111 25.8089H53.9686C53.8281 25.8089 53.7578 25.7365 53.7578 25.5918V7.93807C53.7578 7.79332 53.8281 7.72095 53.9686 7.72095H66.5542C66.6947 7.72095 66.7541 7.86569 66.6947 8.01601C66.5542 8.38345 65.7004 10.7996 65.5869 11.0947C65.5275 11.2394 65.4572 11.3118 65.2735 11.3118H57.9512C57.8107 11.3118 57.7405 11.3842 57.7405 11.5289V14.7524C57.7405 14.8971 57.8107 14.9695 57.9512 14.9695H64.4197C64.5602 14.9695 64.6304 15.0419 64.6304 15.1866V18.115C64.6304 18.2597 64.5602 18.3321 64.4197 18.3321H57.9512C57.8107 18.3321 57.7405 18.4045 57.7405 18.5492V21.845C57.7405 21.9898 57.8107 22.0622 57.9512 22.0622H65.9111C66.0516 22.0622 66.1219 22.1345 66.1219 22.2793V22.296Z" fill="#002EDA"/>
<path d="M79.3514 11.4571H73.2828C72.2561 11.4571 71.8184 11.9693 71.8184 12.7042C71.8184 13.5115 72.456 13.9624 73.807 14.4635L76.2226 15.3431C79.1515 16.412 80.5618 17.6145 80.5618 20.5429C80.5618 23.6939 78.5732 25.8151 74.0934 25.8151H68.1924C68.0519 25.8151 67.9816 25.7427 67.9816 25.5979V22.3021C67.9816 22.1574 68.0519 22.085 68.1924 22.085H74.6068C75.8605 22.085 76.3685 21.5171 76.3685 20.6375C76.3685 19.6577 75.7416 19.2012 74.0232 18.5721L71.8184 17.7648C69.5271 16.9298 67.625 15.7272 67.625 12.9325C67.625 9.49191 70.1108 7.73267 73.7368 7.73267H79.3514C79.4919 7.73267 79.5621 7.80504 79.5621 7.94979V11.2456C79.5621 11.3903 79.4919 11.4627 79.3514 11.4627V11.4571Z" fill="#002EDA"/>
<path d="M88.521 25.5918V7.93807C88.521 7.79332 88.5913 7.72095 88.7318 7.72095H97.5455C100.815 7.72095 102.236 10.1371 102.236 12.4086C102.236 14.1678 101.382 15.7767 99.8205 16.5116C102.025 17.1686 103.02 18.7107 103.02 20.8318C103.02 23.9828 100.815 25.8145 97.2591 25.8145H88.7264C88.5859 25.8145 88.5156 25.7421 88.5156 25.5973L88.521 25.5918ZM92.5739 11.4566V14.8247C92.5739 14.9695 92.6442 15.0419 92.7847 15.0419H96.2702C97.5509 15.0419 98.2588 14.4239 98.2588 13.1546C98.2588 11.9688 97.6211 11.2339 96.2702 11.2339H92.7847C92.6442 11.2339 92.5739 11.3062 92.5739 11.451V11.4566ZM92.5739 18.5604V22.0733C92.5739 22.218 92.6442 22.2904 92.7847 22.2904H96.8376C98.1886 22.2904 98.9019 21.4832 98.9019 20.3864C98.9019 19.2173 98.2642 18.3377 96.8376 18.3377H92.7847C92.6442 18.3377 92.5739 18.41 92.5739 18.5548V18.5604Z" fill="#002EDA"/>
<path d="M109.557 7.72095H113.637C113.837 7.72095 113.88 7.79332 113.923 7.93807L119.808 25.5918C119.851 25.7087 119.808 25.8089 119.678 25.8089H115.982C115.825 25.8089 115.755 25.7365 115.712 25.5918L114.588 22.0009C114.528 21.8228 114.474 21.7838 114.318 21.7838H108.941C108.784 21.7838 108.73 21.8283 108.671 22.0009L107.574 25.5918C107.514 25.7699 107.46 25.8089 107.303 25.8089H103.661C103.45 25.8089 103.375 25.7365 103.451 25.5138L109.265 7.93807C109.308 7.79332 109.352 7.72095 109.551 7.72095H109.557ZM113.61 18.694L111.691 12.1302C111.664 12.0133 111.551 12.0133 111.518 12.1302L109.584 18.7051C109.541 18.8498 109.611 18.9222 109.757 18.9222H113.437C113.577 18.9222 113.648 18.8498 113.61 18.6884V18.694Z" fill="#002EDA"/>
<path d="M124.876 25.8089H121.32C121.18 25.8089 121.109 25.7365 121.109 25.5918V7.93807C121.109 7.79332 121.18 7.72095 121.32 7.72095H124.163L124.303 7.79332L132.193 18.4156V7.94363C132.193 7.79889 132.263 7.72651 132.403 7.72651H135.959C136.1 7.72651 136.17 7.79889 136.17 7.94363V25.6697C136.17 25.7421 136.1 25.8145 136.029 25.8145H133.187L133.047 25.7421L125.087 15.1977V25.5973C125.087 25.7421 125.016 25.8145 124.876 25.8145V25.8089Z" fill="#002EDA"/>
<path d="M139.023 25.5918V7.93807C139.023 7.79332 139.094 7.72095 139.234 7.72095H142.79C142.93 7.72095 143.001 7.79332 143.001 7.93807V15.1755C143.001 15.2924 143.13 15.3202 143.201 15.2367L149.372 7.94363C149.512 7.78218 149.572 7.72651 149.799 7.72651H153.581C153.738 7.72651 153.808 7.9325 153.695 8.06611L147.583 15.671C147.524 15.7433 147.524 15.8157 147.583 15.9048L154.235 25.5305C154.322 25.6474 154.252 25.8256 154.052 25.8256H150.058C149.901 25.8256 149.847 25.7811 149.772 25.6809L144.968 18.694C144.908 18.6216 144.827 18.6216 144.741 18.7107L143.076 20.559C143.033 20.6035 143.006 20.6481 143.006 20.7371V25.614C143.006 25.7588 142.936 25.8312 142.795 25.8312H139.24C139.099 25.8312 139.029 25.7588 139.029 25.614L139.023 25.5918Z" fill="#002EDA"/>
</svg>
